-
 
http://www.Speed. Cd       the fast  and The Hottest Private Tracker on the net 
http://www.Speed. Cd

Please Seed back to make the speed Faster!!
 ............ NFO .............
-
 
http://www.Speed. Cd[img]http://img600.imageshack.us/img600/7510/402343bas1nu8x.jpg[/img]
[img]http://leetleech.org/images/18415962319519313563.jpg[/img]


Genre:Action | Adventure | Crime
Language:English
IMDb:http://www.imdb.com/title/tt1684233/
Source: 1080p WEB-DL H264-HKD Thanks
Sample:Never
Encoder:Tony

Format                                   : AVI
Format/Info                              : Audio Video Interleave
File size                                : 905 MiB
Duration                                 : 1h 39mn
Overall bit rate                         : 1 268 Kbps

Video
ID                                       : 0
Format                                   : MPEG-4 Visual
Format profile                           : Advanced Simple@L5
Format settings, BVOP                    : 1
Format settings, QPel                    : No
Format settings, GMC                     : No warppoints
Format settings, Matrix                  : Default (H.263)
Codec ID                                 : XVID
Codec ID/Hint                            : XviD
Duration                                 : 1h 39mn
Bit rate                                 : 875 Kbps
Width                                    : 640 pixels
Height                                   : 264 pixels
Display aspect ratio                     : 2.40:1
Frame rate                               : 23.976 fps
Color space                              : YUV
Chroma subsampling                       : 4:2:0
Bit depth                                : 8 bits
Scan type                                : Progressive
Compression mode                         : Lossy
Bits/(Pixel*Frame)                       : 0.216
Stream size                              : 624 MiB (69%)
Writing library                          : XviD 1.2.1 (UTC 2008-12-04)

Audio
ID                                       : 1
Format                                   : AC-3
Format/Info                              : Audio Coding 3
Mode extension                           : CM (complete main)
Codec ID                                 : 2000
Duration                                 : 1h 39mn
Bit rate mode                            : Constant
Bit rate                                 : 384 Kbps
Channel(s)                               : 6 channels
Channel positions                        : Front: L C R, Side: L R, LFE
Sampling rate                            : 48.0 KHz
Bit depth                                : 16 bits
Compression mode                         : Lossy
Stream size                              : 274 MiB (30%)
Alignment                                : Aligned on interleaves
Interleave, duration                     : 42 ms (1.00 video frame)
Interleave, preload duration             : 512 ms

    
Plot:
  Ex-criminal Jacob Sternwood is forced to return to London when his son is involved in a heist gone wrong. This gives his nemesis, detective Max Lewinsky, one last chance to catch the man he's always been after. 


Greets:
 CRYS,MiNiSTRY,INSPiRAL,IMAGINE,LKRG,ADTRG,FXG,3Li,FLAWL3SS,CrEwSaDe,TA,iLLUSiON,EMBER,HOPE,GooN,BBnRG,NOGRP,ETRG,BHRG,iLLUMiNATi,MiSTERE.ViSiON,DTRG SAFCuk009,LU,TheFalcon007,MYSTiC,PrisM,Noir,WBZ,LAP,Rx,Kingdom,SAFCuk009+Fabreezy,HDLiTE,TWiZTED,ETRG.ELEKTRI4KA,MAGNAT,CM8
                And to all the other p2p grps past and present